<svg width="16" height="16" viewBox="0 0 16 16" fill="none" xmlns="http://www.w3.org/2000/svg">
<path fill-rule="evenodd" clip-rule="evenodd" d="M7.99999 4.16666C6.61928 4.16666 5.49999 5.28594 5.49999 6.66666C5.49999 8.04737 6.61928 9.16666 7.99999 9.16666C9.3807 9.16666 10.5 8.04737 10.5 6.66666C10.5 5.28594 9.3807 4.16666 7.99999 4.16666ZM6.49999 6.66666C6.49999 5.83823 7.17156 5.16666 7.99999 5.16666C8.82842 5.16666 9.49999 5.83823 9.49999 6.66666C9.49999 7.49508 8.82842 8.16666 7.99999 8.16666C7.17156 8.16666 6.49999 7.49508 6.49999 6.66666Z" fill="white"/>
<path fill-rule="evenodd" clip-rule="evenodd" d="M7.99999 0.166656C4.74443 0.166656 2.16666 2.99517 2.16666 6.40579C2.16666 7.4996 2.71006 8.78762 3.39375 9.99634C4.08851 11.2246 4.97524 12.4508 5.75268 13.4422L5.77861 13.4753C6.15808 13.9592 6.48135 14.3715 6.79482 14.6562C7.13682 14.9669 7.51395 15.1703 7.99999 15.1703C8.48603 15.1703 8.86316 14.9669 9.20516 14.6562C9.51864 14.3715 9.8419 13.9592 10.2214 13.4752L10.2473 13.4422C11.0247 12.4508 11.9115 11.2246 12.6062 9.99634C13.2899 8.78762 13.8333 7.4996 13.8333 6.40579C13.8333 2.99517 11.2555 0.166656 7.99999 0.166656ZM3.16666 6.40579C3.16666 3.47713 5.36451 1.16666 7.99999 1.16666C10.6355 1.16666 12.8333 3.47713 12.8333 6.40579C12.8333 7.22345 12.4069 8.31757 11.7358 9.50401C11.0758 10.6709 10.2228 11.8529 9.4604 12.8251C9.04776 13.3513 8.77607 13.695 8.53278 13.916C8.31089 14.1176 8.16277 14.1703 7.99999 14.1703C7.83721 14.1703 7.68909 14.1176 7.4672 13.916C7.22391 13.695 6.95222 13.3513 6.53958 12.8251C5.77718 11.8529 4.92418 10.6709 4.26416 9.50401C3.59307 8.31757 3.16666 7.22345 3.16666 6.40579Z" fill="white"/>
</svg>
