<svg width="228" height="64" viewBox="0 0 228 64" fill="none" xmlns="http://www.w3.org/2000/svg">
<g clip-path="url(#clip0_25_5451)">
<path d="M35.75 29.9375C37.28 31.0361 39.1164 31.6263 41 31.625V27.875C39.6076 27.875 38.2723 27.3219 37.2877 26.3373C36.3031 25.3527 35.75 24.0174 35.75 22.625H32V34.625C32 35.0948 31.8739 35.5559 31.6349 35.9603C31.3959 36.3647 31.0528 36.6976 30.6413 36.9242C30.2298 37.1508 29.765 37.2629 29.2955 37.2486C28.8259 37.2344 28.3688 37.0944 27.9718 36.8433C27.5748 36.5922 27.2524 36.2392 27.0384 35.821C26.8243 35.4029 26.7264 34.9349 26.7548 34.466C26.7832 33.9971 26.937 33.5445 27.1999 33.1552C27.4629 32.766 27.8256 32.4544 28.25 32.2531V28.3531C27.0562 28.5672 25.9482 29.1173 25.0561 29.939C24.1639 30.7607 23.5247 31.8198 23.2135 32.9921C22.9022 34.1643 22.9319 35.4011 23.2988 36.5571C23.6658 37.7131 24.355 38.7404 25.2854 39.5185C26.2158 40.2965 27.3489 40.793 28.5516 40.9497C29.7543 41.1063 30.9767 40.9166 32.0754 40.4029C33.1741 39.8891 34.1034 39.0726 34.7543 38.0492C35.4052 37.0257 35.7506 35.8379 35.75 34.625V29.9375Z" stroke="white" stroke-width="1.5" stroke-linecap="round" stroke-linejoin="round"/>
</g>
<path d="M79 22H76C74.6739 22 73.4021 22.5268 72.4645 23.4645C71.5268 24.4021 71 25.6739 71 27V30H68V34H71V42H75V34H78L79 30H75V27C75 26.7348 75.1054 26.4804 75.2929 26.2929C75.4804 26.1054 75.7348 26 76 26H79V22Z" stroke="white" stroke-width="2" stroke-linecap="round" stroke-linejoin="round"/>
<path fill-rule="evenodd" clip-rule="evenodd" d="M121.634 24.5356C119.665 22.5643 117.047 21.4783 114.257 21.4771C108.509 21.4771 103.83 26.1552 103.828 31.9052C103.827 33.7433 104.307 35.5374 105.22 37.1189L103.741 42.5231L109.269 41.0728C110.792 41.9037 112.507 42.3416 114.253 42.3422H114.257C114.257 42.3422 114.257 42.3422 114.257 42.3422C120.005 42.3422 124.684 37.6637 124.686 31.9135C124.687 29.1269 123.603 26.5067 121.634 24.5356ZM114.257 40.5809H114.254C112.698 40.5803 111.173 40.1624 109.842 39.3727L109.525 39.1849L106.245 40.0454L107.12 36.8468L106.914 36.5188C106.046 35.1387 105.588 33.5436 105.589 31.9058C105.591 27.1266 109.479 23.2385 114.261 23.2385C116.576 23.2392 118.752 24.142 120.389 25.7805C122.025 27.4189 122.926 29.5967 122.925 31.9128C122.923 36.6924 119.035 40.5809 114.257 40.5809Z" fill="white"/>
<path fill-rule="evenodd" clip-rule="evenodd" d="M119.012 34.089C118.751 33.9586 117.47 33.3283 117.231 33.2413C116.992 33.1543 116.818 33.1108 116.645 33.3717C116.471 33.6325 115.972 34.2195 115.82 34.3935C115.668 34.5673 115.516 34.5892 115.255 34.4586C114.995 34.3282 114.155 34.0531 113.16 33.1653C112.385 32.4743 111.862 31.621 111.71 31.3601C111.558 31.0993 111.694 30.9582 111.824 30.8283C111.941 30.7115 112.085 30.5239 112.215 30.3718C112.345 30.2197 112.389 30.1109 112.476 29.9371C112.563 29.7631 112.519 29.6109 112.454 29.4806C112.389 29.3501 111.868 28.0675 111.651 27.5457C111.439 27.0376 111.224 27.1065 111.064 27.0984C110.912 27.0908 110.739 27.0892 110.565 27.0892C110.391 27.0892 110.109 27.1545 109.87 27.4153C109.631 27.6762 108.958 28.3067 108.958 29.5891C108.958 30.8718 109.892 32.1109 110.022 32.2848C110.152 32.4587 111.859 35.0907 114.473 36.2194C115.095 36.4879 115.581 36.6483 115.959 36.7683C116.583 36.9667 117.151 36.9387 117.6 36.8716C118.101 36.7968 119.142 36.2412 119.359 35.6326C119.576 35.0238 119.576 34.502 119.511 34.3934C119.446 34.2847 119.272 34.2195 119.012 34.089Z" fill="white"/>
<path d="M164.506 27.1915C164.399 26.7617 164.18 26.3679 163.871 26.0499C163.563 25.7319 163.176 25.5009 162.75 25.3803C161.192 25 154.962 25 154.962 25C154.962 25 148.731 25 147.174 25.4166C146.748 25.5372 146.361 25.7681 146.052 26.0861C145.744 26.4041 145.525 26.7979 145.417 27.2277C145.132 28.8084 144.993 30.4119 145.001 32.0181C144.99 33.6364 145.13 35.2521 145.417 36.8448C145.536 37.2612 145.76 37.64 146.067 37.9445C146.375 38.2491 146.756 38.4692 147.174 38.5834C148.731 39 154.962 39 154.962 39C154.962 39 161.192 39 162.75 38.5834C163.176 38.4628 163.563 38.2319 163.871 37.9139C164.18 37.5959 164.399 37.2021 164.506 36.7723C164.789 35.2035 164.929 33.6122 164.923 32.0181C164.933 30.3998 164.794 28.7841 164.506 27.1915Z" stroke="white" stroke-width="1.81113" stroke-linecap="round" stroke-linejoin="round"/>
<path d="M152.924 34.9793L158.131 32.0181L152.924 29.0569V34.9793Z" stroke="white" stroke-width="1.81113" stroke-linecap="round" stroke-linejoin="round"/>
<path d="M195.937 27.0688C192.974 27.0688 190.519 29.4815 190.519 32.4868C190.519 35.4921 192.931 37.9048 195.937 37.9048C198.942 37.9048 201.355 35.4497 201.355 32.4868C201.355 29.5238 198.899 27.0688 195.937 27.0688ZM195.937 35.9577C194.032 35.9577 192.466 34.3915 192.466 32.4868C192.466 30.582 194.032 29.0159 195.937 29.0159C197.841 29.0159 199.407 30.582 199.407 32.4868C199.407 34.3915 197.841 35.9577 195.937 35.9577Z" fill="white"/>
<path d="M201.566 28.1693C202.244 28.1693 202.794 27.6197 202.794 26.9418C202.794 26.2639 202.244 25.7143 201.566 25.7143C200.888 25.7143 200.339 26.2639 200.339 26.9418C200.339 27.6197 200.888 28.1693 201.566 28.1693Z" fill="white"/>
<path d="M204.741 23.7672C203.64 22.6243 202.074 22.0317 200.296 22.0317H191.577C187.894 22.0317 185.439 24.4868 185.439 28.1693V36.8466C185.439 38.6667 186.032 40.2328 187.217 41.3757C188.36 42.4762 189.884 43.0265 191.619 43.0265H200.254C202.074 43.0265 203.598 42.4339 204.698 41.3757C205.841 40.2751 206.434 38.709 206.434 36.8889V28.1693C206.434 26.3915 205.841 24.8677 204.741 23.7672ZM204.571 36.8889C204.571 38.2011 204.106 39.2593 203.344 39.9788C202.582 40.6984 201.524 41.0794 200.254 41.0794H191.619C190.349 41.0794 189.291 40.6984 188.529 39.9788C187.767 39.2169 187.386 38.1587 187.386 36.8466V28.1693C187.386 26.8995 187.767 25.8413 188.529 25.0794C189.249 24.3598 190.349 23.9788 191.619 23.9788H200.339C201.608 23.9788 202.667 24.3598 203.429 25.1217C204.148 25.8836 204.571 26.9418 204.571 28.1693V36.8889Z" fill="white"/>
<defs>
<clipPath id="clip0_25_5451">
<rect width="24" height="24" fill="white" transform="translate(20 20)"/>
</clipPath>
</defs>
</svg>
