<svg width="16" height="16" viewBox="0 0 16 16" fill="none" xmlns="http://www.w3.org/2000/svg">
<path fill-rule="evenodd" clip-rule="evenodd" d="M5.40789 1.98337C4.7065 1.33888 3.62839 1.33888 2.927 1.98337C2.89828 2.00976 2.86761 2.04043 2.82779 2.08026L2.22946 2.67859C1.62739 3.28067 1.37464 4.14861 1.55935 4.9798C2.60733 9.69571 6.29035 13.3787 11.0063 14.4267C11.8374 14.6114 12.7054 14.3587 13.3075 13.7566L13.9057 13.1583C13.9456 13.1185 13.9763 13.0878 14.0027 13.0591C14.6472 12.3577 14.6472 11.2796 14.0027 10.5782C13.9763 10.5494 13.9456 10.5188 13.9057 10.4789L12.9262 9.4994C12.2462 8.81933 11.2191 8.62483 10.3375 9.00914C9.83277 9.22915 9.2448 9.1178 8.85547 8.72846L7.2576 7.13059C6.86826 6.74125 6.75691 6.15329 6.97692 5.64855C7.36123 4.76691 7.16673 3.73989 6.48666 3.05982L5.50711 2.08027C5.46728 2.04044 5.43662 2.00976 5.40789 1.98337ZM3.60361 2.71971C3.92242 2.42676 4.41247 2.42676 4.73128 2.71971C4.74229 2.72982 4.75671 2.74409 4.80742 2.7948L5.77955 3.76693C6.16889 4.15627 6.28024 4.74423 6.06023 5.24897C5.67592 6.13061 5.87042 7.15763 6.55049 7.8377L8.14836 9.43557C8.82843 10.1156 9.85545 10.3101 10.7371 9.92583C11.2418 9.70582 11.8298 9.81717 12.2191 10.2065L13.1913 11.1786C13.242 11.2293 13.2562 11.2438 13.2663 11.2548C13.5593 11.5736 13.5593 12.0636 13.2663 12.3825C13.2562 12.3935 13.242 12.4079 13.1913 12.4586L12.6004 13.0495C12.24 13.4098 11.7206 13.5611 11.2232 13.4505C6.8863 12.4868 3.49929 9.09975 2.53554 4.76287C2.425 4.26544 2.57625 3.74601 2.93657 3.3857L3.52746 2.7948C3.57818 2.74409 3.5926 2.72982 3.60361 2.71971Z" fill="#FAFAFA"/>
</svg>
