<svg width="125" height="60" viewBox="0 0 125 60" fill="none" xmlns="http://www.w3.org/2000/svg">
<rect x="125" y="60" width="125" height="60" rx="30" transform="rotate(180 125 60)" fill="#F3F3F3" fill-opacity="0.1"/>
<circle cx="30.4935" cy="30.1465" r="21.7676" transform="rotate(180 30.4935 30.1465)" fill="#181818"/>
<path d="M37.0275 30.1465L23.9595 30.1465" stroke="white" stroke-width="2" stroke-linecap="round" stroke-linejoin="round"/>
<path d="M29.3055 35.4924L23.9595 30.1464L29.3055 24.8004" stroke="white" stroke-width="2" stroke-linecap="round" stroke-linejoin="round"/>
<path d="M68.8992 30.314C69.3672 30.314 69.7782 30.254 70.1322 30.134C70.4922 30.014 70.7892 29.846 71.0232 29.63C71.2632 29.408 71.4432 29.141 71.5632 28.829C71.6832 28.517 71.7432 28.169 71.7432 27.785C71.7432 27.407 71.6832 27.068 71.5632 26.768C71.4492 26.468 71.2752 26.213 71.0412 26.003C70.8072 25.793 70.5102 25.634 70.1502 25.526C69.7962 25.412 69.3792 25.355 68.8992 25.355L66.9732 25.355L66.9732 30.314L68.8992 30.314ZM68.8992 23.708C69.7452 23.708 70.4772 23.807 71.0952 24.005C71.7192 24.203 72.2322 24.482 72.6342 24.842C73.0422 25.196 73.3452 25.625 73.5432 26.129C73.7412 26.627 73.8402 27.179 73.8402 27.785C73.8402 28.403 73.7352 28.97 73.5252 29.486C73.3152 29.996 73.0032 30.437 72.5892 30.809C72.1752 31.175 71.6592 31.463 71.0412 31.673C70.4292 31.877 69.7152 31.979 68.8992 31.979L66.9732 31.979L66.9732 36.668L64.8672 36.668L64.8672 23.708L68.8992 23.708ZM77.1623 29.189C77.4503 28.607 77.7983 28.151 78.2063 27.821C78.6143 27.485 79.1033 27.317 79.6733 27.317C79.8713 27.317 80.0573 27.341 80.2313 27.389C80.4053 27.431 80.5613 27.497 80.6993 27.587L80.5643 29.045C80.5403 29.147 80.5013 29.219 80.4473 29.261C80.3993 29.297 80.3333 29.315 80.2493 29.315C80.1593 29.315 80.0303 29.3 79.8623 29.27C79.6943 29.234 79.5173 29.216 79.3313 29.216C79.0613 29.216 78.8213 29.255 78.6113 29.333C78.4073 29.411 78.2213 29.525 78.0533 29.675C77.8913 29.825 77.7473 30.008 77.6213 30.224C77.4953 30.44 77.3783 30.686 77.2703 30.962L77.2703 36.668L75.3353 36.668L75.3353 27.488L76.4603 27.488C76.6643 27.488 76.8053 27.527 76.8833 27.605C76.9613 27.677 77.0153 27.806 77.0453 27.992L77.1623 29.189ZM87.6844 31.043C87.6844 30.719 87.6364 30.419 87.5404 30.143C87.4504 29.861 87.3154 29.618 87.1354 29.414C86.9554 29.204 86.7304 29.042 86.4604 28.928C86.1964 28.808 85.8904 28.748 85.5424 28.748C84.8404 28.748 84.2884 28.949 83.8864 29.351C83.4844 29.753 83.2294 30.317 83.1214 31.043L87.6844 31.043ZM83.0674 32.231C83.0914 32.753 83.1724 33.206 83.3104 33.59C83.4484 33.968 83.6314 34.283 83.8594 34.535C84.0934 34.787 84.3694 34.976 84.6874 35.102C85.0114 35.222 85.3714 35.282 85.7674 35.282C86.1454 35.282 86.4724 35.24 86.7484 35.156C87.0244 35.066 87.2644 34.97 87.4684 34.868C87.6724 34.76 87.8464 34.664 87.9904 34.58C88.1344 34.49 88.2664 34.445 88.3864 34.445C88.5424 34.445 88.6624 34.505 88.7464 34.625L89.2954 35.336C89.0674 35.606 88.8094 35.834 88.5214 36.02C88.2334 36.206 87.9274 36.359 87.6034 36.479C87.2794 36.593 86.9464 36.674 86.6044 36.722C86.2624 36.776 85.9294 36.803 85.6054 36.803C84.9694 36.803 84.3784 36.698 83.8324 36.488C83.2924 36.272 82.8214 35.957 82.4194 35.543C82.0234 35.129 81.7114 34.616 81.4834 34.004C81.2614 33.392 81.1504 32.687 81.1504 31.889C81.1504 31.253 81.2494 30.659 81.4474 30.107C81.6514 29.555 81.9394 29.075 82.3114 28.667C82.6894 28.259 83.1454 27.938 83.6794 27.704C84.2194 27.464 84.8284 27.344 85.5064 27.344C86.0704 27.344 86.5924 27.437 87.0724 27.623C87.5524 27.803 87.9664 28.07 88.3144 28.424C88.6624 28.778 88.9324 29.213 89.1244 29.729C89.3224 30.239 89.4214 30.821 89.4214 31.475C89.4214 31.775 89.3884 31.976 89.3224 32.078C89.2564 32.18 89.1364 32.231 88.9624 32.231L83.0674 32.231ZM99.097 27.488L95.407 36.668L93.661 36.668L89.971 27.488L91.564 27.488C91.714 27.488 91.837 27.527 91.933 27.605C92.035 27.677 92.101 27.764 92.131 27.866L94.165 33.212C94.249 33.464 94.324 33.713 94.39 33.959C94.456 34.205 94.513 34.454 94.561 34.706C94.609 34.454 94.666 34.208 94.732 33.968C94.804 33.722 94.882 33.47 94.966 33.212L97.036 27.866C97.072 27.758 97.138 27.668 97.234 27.596C97.33 27.524 97.447 27.488 97.585 27.488L99.097 27.488Z" fill="white"/>
</svg>
