<svg width="125" height="60" viewBox="0 0 125 60" fill="none" xmlns="http://www.w3.org/2000/svg">
<rect width="125" height="60" rx="30" fill="#F3F3F3" fill-opacity="0.1"/>
<circle cx="94.7018" cy="29.8535" r="21.7676" fill="#FFE3E3"/>
<path d="M88.1678 29.8535H101.236M101.236 29.8535L95.8898 24.5076M101.236 29.8535L95.8898 35.1996" stroke="#141414" stroke-width="2" stroke-linecap="round" stroke-linejoin="round"/>
<path d="M35.1342 23.372V36.332H34.0632C33.9012 36.332 33.7632 36.305 33.6492 36.251C33.5352 36.191 33.4272 36.095 33.3252 35.963L26.2062 26.819C26.2242 26.993 26.2362 27.167 26.2422 27.341C26.2542 27.509 26.2602 27.665 26.2602 27.809V36.332H24.4062V23.372H25.5042C25.5942 23.372 25.6692 23.378 25.7292 23.39C25.7952 23.396 25.8552 23.411 25.9092 23.435C25.9632 23.459 26.0142 23.495 26.0622 23.543C26.1102 23.591 26.1612 23.651 26.2152 23.723L33.3432 32.876C33.3252 32.69 33.3102 32.507 33.2982 32.327C33.2922 32.147 33.2892 31.979 33.2892 31.823V23.372H35.1342ZM43.6023 30.707C43.6023 30.383 43.5543 30.083 43.4583 29.807C43.3683 29.525 43.2333 29.282 43.0533 29.078C42.8733 28.868 42.6483 28.706 42.3783 28.592C42.1143 28.472 41.8083 28.412 41.4603 28.412C40.7583 28.412 40.2063 28.613 39.8043 29.015C39.4023 29.417 39.1473 29.981 39.0393 30.707H43.6023ZM38.9853 31.895C39.0093 32.417 39.0903 32.87 39.2283 33.254C39.3663 33.632 39.5493 33.947 39.7773 34.199C40.0113 34.451 40.2873 34.64 40.6053 34.766C40.9293 34.886 41.2893 34.946 41.6853 34.946C42.0633 34.946 42.3903 34.904 42.6663 34.82C42.9423 34.73 43.1823 34.634 43.3863 34.532C43.5903 34.424 43.7643 34.328 43.9083 34.244C44.0523 34.154 44.1843 34.109 44.3043 34.109C44.4603 34.109 44.5803 34.169 44.6643 34.289L45.2133 35C44.9853 35.27 44.7273 35.498 44.4393 35.684C44.1513 35.87 43.8453 36.023 43.5213 36.143C43.1973 36.257 42.8643 36.338 42.5223 36.386C42.1803 36.44 41.8473 36.467 41.5233 36.467C40.8873 36.467 40.2963 36.362 39.7503 36.152C39.2103 35.936 38.7393 35.621 38.3373 35.207C37.9413 34.793 37.6293 34.28 37.4013 33.668C37.1793 33.056 37.0683 32.351 37.0683 31.553C37.0683 30.917 37.1673 30.323 37.3653 29.771C37.5693 29.219 37.8573 28.739 38.2293 28.331C38.6073 27.923 39.0633 27.602 39.5973 27.368C40.1373 27.128 40.7463 27.008 41.4243 27.008C41.9883 27.008 42.5103 27.101 42.9903 27.287C43.4703 27.467 43.8843 27.734 44.2323 28.088C44.5803 28.442 44.8503 28.877 45.0423 29.393C45.2403 29.903 45.3393 30.485 45.3393 31.139C45.3393 31.439 45.3063 31.64 45.2403 31.742C45.1743 31.844 45.0543 31.895 44.8803 31.895H38.9853ZM54.9048 36.332H53.0508C52.9008 36.332 52.7808 36.293 52.6908 36.215C52.6068 36.137 52.5378 36.05 52.4838 35.954L50.3688 32.561C50.3148 32.765 50.2428 32.942 50.1528 33.092L48.2358 35.954C48.1698 36.05 48.0948 36.137 48.0108 36.215C47.9328 36.293 47.8278 36.332 47.6958 36.332H45.9678L49.1448 31.598L46.0938 27.152H47.9478C48.0978 27.152 48.2058 27.176 48.2718 27.224C48.3438 27.266 48.4068 27.332 48.4608 27.422L50.5398 30.662C50.5938 30.464 50.6778 30.275 50.7918 30.095L52.5468 27.458C52.6668 27.254 52.8198 27.152 53.0058 27.152H54.7788L51.7278 31.517L54.9048 36.332ZM59.1572 36.476C58.3952 36.476 57.8072 36.263 57.3932 35.837C56.9852 35.405 56.7812 34.799 56.7812 34.019V28.673H55.7732C55.6652 28.673 55.5722 28.64 55.4942 28.574C55.4162 28.502 55.3772 28.397 55.3772 28.259V27.476L56.8622 27.26L57.2852 24.605C57.3152 24.503 57.3662 24.422 57.4382 24.362C57.5102 24.296 57.6062 24.263 57.7262 24.263H58.7162V27.278H61.2632V28.673H58.7162V33.884C58.7162 34.214 58.7972 34.466 58.9592 34.64C59.1212 34.814 59.3372 34.901 59.6072 34.901C59.7572 34.901 59.8862 34.883 59.9942 34.847C60.1022 34.805 60.1952 34.763 60.2732 34.721C60.3512 34.673 60.4172 34.631 60.4712 34.595C60.5312 34.553 60.5882 34.532 60.6422 34.532C60.7502 34.532 60.8372 34.592 60.9032 34.712L61.4792 35.657C61.1792 35.921 60.8252 36.125 60.4172 36.269C60.0092 36.407 59.5892 36.476 59.1572 36.476Z" fill="white"/>
</svg>
