<svg width="33" height="33" viewBox="0 0 33 33" fill="none" xmlns="http://www.w3.org/2000/svg">
<circle cx="16.5" cy="16.5" r="12.375" stroke="#E0E0E0" stroke-width="8.25"/>
<mask id="path-2-inside-1_25_5518" fill="white">
<path d="M33 16.5C33 13.7035 32.2892 10.9529 30.9345 8.50655C29.5797 6.06015 27.6254 3.99821 25.2551 2.51437C22.8848 1.03053 20.1762 0.173472 17.3838 0.0236859C14.5913 -0.1261 11.8066 0.4363 9.29118 1.65807C6.77573 2.87984 4.61207 4.72089 3.0034 7.00834C1.39472 9.29578 0.393818 11.9545 0.0946758 14.735C-0.204467 17.5154 0.20797 20.3262 1.29325 22.9035C2.37854 25.4808 4.10105 27.7399 6.29905 29.4688L11.4011 22.9824C10.3024 22.1183 9.44142 20.989 8.89895 19.7008C8.35647 18.4125 8.15032 17.0075 8.29984 15.6178C8.44937 14.228 8.94967 12.899 9.75376 11.7556C10.5578 10.6122 11.6393 9.692 12.8967 9.0813C14.154 8.4706 15.546 8.18949 16.9418 8.26436C18.3376 8.33923 19.6914 8.76763 20.8762 9.50932C22.061 10.251 23.0379 11.2817 23.715 12.5045C24.3922 13.7273 24.7475 15.1022 24.7475 16.5H33Z"/>
</mask>
<path d="M33 16.5C33 13.7035 32.2892 10.9529 30.9345 8.50655C29.5797 6.06015 27.6254 3.99821 25.2551 2.51437C22.8848 1.03053 20.1762 0.173472 17.3838 0.0236859C14.5913 -0.1261 11.8066 0.4363 9.29118 1.65807C6.77573 2.87984 4.61207 4.72089 3.0034 7.00834C1.39472 9.29578 0.393818 11.9545 0.0946758 14.735C-0.204467 17.5154 0.20797 20.3262 1.29325 22.9035C2.37854 25.4808 4.10105 27.7399 6.29905 29.4688L11.4011 22.9824C10.3024 22.1183 9.44142 20.989 8.89895 19.7008C8.35647 18.4125 8.15032 17.0075 8.29984 15.6178C8.44937 14.228 8.94967 12.899 9.75376 11.7556C10.5578 10.6122 11.6393 9.692 12.8967 9.0813C14.154 8.4706 15.546 8.18949 16.9418 8.26436C18.3376 8.33923 19.6914 8.76763 20.8762 9.50932C22.061 10.251 23.0379 11.2817 23.715 12.5045C24.3922 13.7273 24.7475 15.1022 24.7475 16.5H33Z" stroke="#994E4E" stroke-width="24.2" mask="url(#path-2-inside-1_25_5518)"/>
</svg>
