<svg width="25" height="24" viewBox="0 0 25 24" fill="none" xmlns="http://www.w3.org/2000/svg">
<path fill-rule="evenodd" clip-rule="evenodd" d="M8.6118 2.97505C7.55972 2.00832 5.94256 2.00832 4.89047 2.97505C4.84739 3.01464 4.80139 3.06065 4.74166 3.12039L3.84417 4.01788C2.94105 4.921 2.56193 6.22292 2.839 7.4697C4.41097 14.5436 9.9355 20.0681 17.0094 21.6401C18.2561 21.9171 19.5581 21.538 20.4612 20.6349L21.3586 19.7375C21.4184 19.6777 21.4644 19.6317 21.504 19.5886C22.4707 18.5365 22.4707 16.9193 21.504 15.8673C21.4644 15.8241 21.4184 15.7781 21.3586 15.7184L19.8893 14.2491C18.8692 13.229 17.3287 12.9372 16.0062 13.5137C15.2491 13.8437 14.3672 13.6767 13.7832 13.0927L11.3864 10.6959C10.8024 10.1119 10.6353 9.22994 10.9654 8.47283C11.5418 7.15037 11.2501 5.60984 10.23 4.58974L8.76063 3.12041C8.7009 3.06066 8.6549 3.01464 8.6118 2.97505ZM5.90538 4.07957C6.3836 3.64014 7.11867 3.64014 7.5969 4.07957C7.6134 4.09474 7.63504 4.11613 7.71111 4.1922L9.1693 5.6504C9.75331 6.2344 9.92033 7.11635 9.59031 7.87345C9.01385 9.19592 9.3056 10.7364 10.3257 11.7565L12.7225 14.1534C13.7426 15.1735 15.2831 15.4652 16.6056 14.8887C17.3627 14.5587 18.2447 14.7258 18.8287 15.3098L20.2869 16.768C20.3629 16.844 20.3843 16.8657 20.3995 16.8822C20.8389 17.3604 20.8389 18.0955 20.3995 18.5737C20.3843 18.5902 20.3629 18.6118 20.2869 18.6879L19.4005 19.5742C18.86 20.1147 18.0809 20.3416 17.3348 20.1758C10.8294 18.7302 5.74891 13.6496 4.30328 7.1443C4.13747 6.39816 4.36435 5.61902 4.90483 5.07855L5.79117 4.1922C5.86724 4.11614 5.88887 4.09474 5.90538 4.07957Z" fill="#333333"/>
</svg>
